name C:\Users\u0101727\Documents\MyRepositories\upper-imu-dc\Results\main_tracking\Case_48\ABD01_linearAccelerations_bodyFrame.mot
datacolumns 4
datarows 82
range 2.81000000 3.62000000
endheader 
time	radius_imu_x	radius_imu_y	radius_imu_z	
          2.81000000	         -2.17708030	          9.45350851	          1.78274977	
          2.82000000	         -1.92432175	          9.45314031	          1.66422772	
          2.83000000	         -1.82867694	          9.44742751	          1.61657484	
          2.84000000	         -1.79519437	          9.44957686	          1.60770949	
          2.85000000	         -1.79307922	          9.45187650	          1.61115514	
          2.86000000	         -1.80497290	          9.45449248	          1.61785709	
          2.87000000	         -1.82278865	          9.45663916	          1.62578178	
          2.88000000	         -1.84397361	          9.45823774	          1.63433488	
          2.89000000	         -1.86883064	          9.45922708	          1.64332729	
          2.90000000	         -1.89853870	          9.45965579	          1.65322486	
          2.91000000	         -1.93434551	          9.45963343	          1.66513160	
          2.92000000	         -1.97734112	          9.45932170	          1.68048926	
          2.93000000	         -2.02836667	          9.45889291	          1.70071866	
          2.94000000	         -2.08787899	          9.45851709	          1.72699509	
          2.95000000	         -2.15581798	          9.45836857	          1.76017003	
          2.96000000	         -2.23147646	          9.45865101	          1.80077895	
          2.97000000	         -2.31342750	          9.45961368	          1.84901892	
          2.98000000	         -2.39956106	          9.46154670	          1.90473853	
          2.99000000	         -2.48725892	          9.46475706	          1.96755868	
          3.00000000	         -2.57380674	          9.46952632	          2.03697648	
          3.01000000	         -2.65683345	          9.47605940	          2.11237385	
          3.02000000	         -2.73447728	          9.48444073	          2.19297346	
          3.03000000	         -2.80543845	          9.49460907	          2.27773109	
          3.04000000	         -2.86899447	          9.50635777	          2.36535493	
          3.05000000	         -2.92491757	          9.51935566	          2.45446971	
          3.06000000	         -2.97335447	          9.53317699	          2.54372879	
          3.07000000	         -3.01472181	          9.54733650	          2.63183753	
          3.08000000	         -3.04957781	          9.56133155	          2.71758187	
          3.09000000	         -3.07838518	          9.57468996	          2.79988479	
          3.10000000	         -3.10126128	          9.58701949	          2.87790057	
          3.11000000	         -3.11793427	          9.59806354	          2.95112995	
          3.12000000	         -3.12769989	          9.60774061	          3.01963259	
          3.13000000	         -3.12936249	          9.61614781	          3.08408426	
          3.14000000	         -3.12128944	          9.62353142	          3.14554496	
          3.15000000	         -3.10148371	          9.63022604	          3.20524283	
          3.16000000	         -3.06783319	          9.63659783	          3.26448321	
          3.17000000	         -3.01850891	          9.64300363	          3.32470055	
          3.18000000	         -2.95232279	          9.64976464	          3.38748868	
          3.19000000	         -2.86903509	          9.65715766	          3.45453419	
          3.20000000	         -2.76958679	          9.66541541	          3.52734212	
          3.21000000	         -2.65589865	          9.67469793	          3.60654814	
          3.22000000	         -2.53048824	          9.68505208	          3.69123767	
          3.23000000	         -2.39663195	          9.69642544	          3.77904481	
          3.24000000	         -2.25865805	          9.70871009	          3.86682271	
          3.25000000	         -2.12161245	          9.72174526	          3.95118342	
          3.26000000	         -1.99059275	          9.73528849	          4.02886494	
          3.27000000	         -1.87031602	          9.74899253	          4.09711799	
          3.28000000	         -1.76489375	          9.76237963	          4.15393437	
          3.29000000	         -1.67754754	          9.77479790	          4.19794225	
          3.30000000	         -1.61047760	          9.78540316	          4.22824772	
          3.31000000	         -1.56522578	          9.79321408	          4.24442933	
          3.32000000	         -1.54315024	          9.79720132	          4.24632946	
          3.33000000	         -1.54538825	          9.79633660	          4.23343194	
          3.34000000	         -1.57266334	          9.78961139	          4.20443799	
          3.35000000	         -1.62563294	          9.77608470	          4.15763622	
          3.36000000	         -1.70522759	          9.75494427	          4.09164737	
          3.37000000	         -1.81234381	          9.72554134	          4.00582806	
          3.38000000	         -1.94743813	          9.68741247	          3.90018835	
          3.39000000	         -2.11055621	          9.64029641	          3.77501327	
          3.40000000	         -2.30159424	          9.58412724	          3.63045166	
          3.41000000	         -2.52045022	          9.51900898	          3.46648821	
          3.42000000	         -2.76667048	          9.44522233	          3.28359811	
          3.43000000	         -3.03778507	          9.36326372	          3.08386699	
          3.44000000	         -3.32721855	          9.27391351	          2.87157830	
          3.45000000	         -3.62538819	          9.17820837	          2.65209475	
          3.46000000	         -3.93091594	          9.07745084	          2.42835603	
          3.47000000	         -4.26827309	          8.97230756	          2.19314327	
          3.48000000	         -4.56667899	          8.86593724	          1.97279616	
          3.49000000	         -4.92247848	          8.76139908	          1.76250765	
          3.50000000	         -5.25965909	          8.66018867	          1.56876800	
          3.51000000	         -5.58738581	          8.56699464	          1.41479904	
          3.52000000	         -5.86327992	          8.49201190	          1.37365805	
          3.53000000	         -6.03627379	          8.44205533	          1.48936144	
          3.54000000	         -6.07033085	          8.41927589	          1.78418339	
          3.55000000	         -5.97580798	          8.41576987	          2.34139902	
          3.56000000	         -5.71792239	          8.44880556	          3.10052371	
          3.57000000	         -5.60540455	          8.46612781	          3.47090831	
          3.58000000	         -5.52340050	          8.46545955	          3.67556786	
          3.59000000	         -5.41411287	          8.46162215	          3.82426632	
          3.60000000	         -5.24575978	          8.45507112	          3.93871955	
          3.61000000	         -5.11583065	          8.44914969	          4.04251998	
          3.62000000	         -4.95088439	          8.43984408	          4.11444737	
